<?xml version="1.0" standalone="no"?>
<!DOCTYPE svg PUBLIC "-//W3C//DTD SVG 20010904//EN"
 "http://www.w3.org/TR/2001/REC-SVG-20010904/DTD/svg10.dtd">
<svg version="1.0" xmlns="http://www.w3.org/2000/svg"
 width="512.000000pt" height="512.000000pt" viewBox="0 0 512.000000 512.000000"
 preserveAspectRatio="xMidYMid meet">
<metadata>
Created by potrace 1.14, written by Peter Selinger 2001-2017
</metadata>
<g transform="translate(0.000000,512.000000) scale(0.100000,-0.100000)"
fill="#000000" stroke="none">
<path d="M3411 5091 c-33 -35 -35 -74 -6 -118 9 -14 15 -26 13 -28 -2 -2 -26
-7 -53 -10 -180 -22 -387 -83 -412 -121 -24 -37 -19 -85 12 -111 32 -28 65
-29 138 -4 99 34 247 62 367 68 128 6 166 19 177 61 11 41 6 57 -49 156 -61
110 -74 125 -121 133 -32 5 -40 2 -66 -26z"/>
<path d="M3350 4583 c-178 -23 -330 -66 -446 -127 -72 -37 -61 -38 -194 8 -41
15 -88 29 -105 32 -16 3 -55 11 -85 19 -30 7 -82 17 -115 21 -33 3 -69 8 -80
10 -26 5 -296 5 -355 0 -25 -2 -74 -9 -110 -16 -36 -7 -76 -14 -90 -16 -95
-17 -287 -83 -409 -141 -292 -137 -565 -386 -720 -658 -89 -155 -171 -374
-197 -525 -4 -25 -8 -47 -9 -50 -11 -46 -19 -208 -20 -425 l-1 -270 -39 -70
c-21 -38 -77 -140 -125 -225 -162 -289 -165 -296 -165 -375 1 -84 24 -135 86
-188 62 -53 109 -66 191 -52 59 9 69 9 73 -5 2 -8 29 -141 60 -295 74 -372 91
-425 180 -550 107 -150 256 -251 440 -297 120 -30 320 -29 440 1 50 13 96 26
103 28 9 4 12 -36 12 -178 1 -192 3 -204 47 -227 30 -17 1601 -17 1636 -1 14
6 30 22 36 36 7 16 11 160 11 454 l0 431 66 81 c121 150 194 261 264 402 133
267 177 462 179 791 l1 90 60 28 c33 15 76 39 95 52 20 13 38 24 41 24 17 0
188 151 244 216 89 102 187 276 228 404 77 238 77 517 1 744 -139 412 -472
708 -899 797 -86 19 -267 30 -330 22z"/>
<path d="M4886 3107 c-15 -15 -30 -50 -40 -95 -28 -126 -67 -234 -123 -350
-30 -62 -56 -121 -58 -132 -2 -10 6 -34 19 -52 25 -38 49 -43 192 -43 102 0
138 13 152 54 21 67 -22 121 -98 121 -34 0 -37 8 -15 50 37 71 95 264 110 362
6 39 3 48 -20 76 -34 40 -84 44 -119 9z"/>
</g>
</svg>
